<?xml version="1.0" encoding="utf-8"?>
<!-- Generator: Adobe Illustrator 22.1.0, SVG Export Plug-In . SVG Version: 6.00 Build 0)  -->
<svg version="1.1" id="Layer_1" xmlns="http://www.w3.org/2000/svg" xmlns:xlink="http://www.w3.org/1999/xlink" x="0px" y="0px"
	 viewBox="0 0 100 100" style="enable-background:new 0 0 100 100;" xml:space="preserve">
<style type="text/css">
	.st0{fill:#1A9D9E;}
</style>
<path class="st0" d="M36.4,20.3c0-7.5,6.2-13.8,13.8-13.8s13.8,6.2,13.8,13.8s-6.2,13.8-13.8,13.8S36.4,27.8,36.4,20.3z M81,52.5
	c-0.9,1.9-2.6,3-4.6,3c-0.7,0-1.3-0.1-2-0.4l-10.6-4.5V60h0.6c0.7,0,1.3,0.6,1.3,1.3v5.5c0,0.3-0.1,0.6-0.3,0.9l-0.4,0.4l5.2,3.3
	c1.3,0.9,2.2,2.2,2.5,3.6c0.3,1.4,0,3-1,4.3l-8.4,11.7c-0.9,1.4-2.6,2.3-4.3,2.3c-1.2,0-2.3-0.3-3.3-1c-2.5-1.9-3-5.4-1.3-7.8l5.1-7
	l-2.2-1.3l-0.6,0.6c-0.3,0.3-0.6,0.4-0.9,0.4H44.5c-0.3,0-0.7-0.1-0.9-0.4l-0.6-0.6l-2.2,1.3l5.1,7c1.9,2.5,1.3,6.1-1.3,7.8
	c-0.9,0.7-2,1-3.2,1c-1.7,0-3.5-0.9-4.5-2.3l-8.5-11.7c-0.9-1.3-1.3-2.8-1-4.3c0.3-1.6,1.2-2.9,2.5-3.6l5.2-3.3l-0.4-0.4
	c-0.3-0.3-0.3-0.6-0.3-0.9v-5.5c0-0.7,0.6-1.3,1.3-1.3h0.6v-9.4l-10.6,4.5c-0.6,0.3-1.3,0.4-2,0.4c-1.9,0-3.8-1.2-4.6-3
	c-1-2.5,0.1-5.5,2.6-6.5l19.7-8.4c0.3-0.1,0.7-0.3,1-0.3c0.9-0.3,1.7-0.4,2.6-0.4h9.8c0.9,0,1.7,0.1,2.6,0.4c0.3,0,0.7,0.1,1,0.3
	l19.7,8.4C80.8,47,82,49.9,81,52.5z M63.3,66.2v-3.8H37v3.8l8.1,8.5h10L63.3,66.2z"/>
</svg>
