<?xml version="1.0" encoding="utf-8"?>
<!-- Generator: Adobe Illustrator 22.1.0, SVG Export Plug-In . SVG Version: 6.00 Build 0)  -->
<svg version="1.1" id="Layer_1" xmlns="http://www.w3.org/2000/svg" xmlns:xlink="http://www.w3.org/1999/xlink" x="0px" y="0px"
	 viewBox="0 0 100 100" style="enable-background:new 0 0 100 100;" xml:space="preserve">
<style type="text/css">
	.st0{fill:#1A9D9E;}
</style>
<path class="st0" d="M40.5,29.5c0-5.2,4.3-9.5,9.5-9.5s9.5,4.3,9.5,9.5S55.2,39,50,39S40.5,34.7,40.5,29.5z M71.3,51.7
	c-0.6,1.3-1.8,2.1-3.2,2.1c-0.5,0-0.9-0.1-1.4-0.3l-7.3-3.1v6.5h0.4c0.5,0,0.9,0.4,0.9,0.9v3.8c0,0.2-0.1,0.4-0.2,0.6l-0.3,0.3
	l3.6,2.3c0.9,0.6,1.5,1.5,1.7,2.5c0.2,1,0,2.1-0.7,3L59,78.4c-0.6,1-1.8,1.6-3,1.6c-0.8,0-1.6-0.2-2.3-0.7c-1.7-1.3-2.1-3.7-0.9-5.4
	l3.5-4.8l-1.5-0.9l-0.4,0.4c-0.2,0.2-0.4,0.3-0.6,0.3h-7.7c-0.2,0-0.5-0.1-0.6-0.3l-0.4-0.4l-1.5,0.9l3.5,4.8
	c1.3,1.7,0.9,4.2-0.9,5.4C45.6,79.8,44.8,80,44,80c-1.2,0-2.4-0.6-3.1-1.6L35,70.3c-0.6-0.9-0.9-1.9-0.7-3s0.8-2,1.7-2.5l3.6-2.3
	l-0.3-0.3c-0.2-0.2-0.2-0.4-0.2-0.6v-3.8c0-0.5,0.4-0.9,0.9-0.9h0.4v-6.5l-7.3,3.1c-0.4,0.2-0.9,0.3-1.4,0.3c-1.3,0-2.6-0.8-3.2-2.1
	c-0.7-1.7,0.1-3.8,1.8-4.5l13.6-5.8c0.2-0.1,0.5-0.2,0.7-0.2c0.6-0.2,1.2-0.3,1.8-0.3h6.8c0.6,0,1.2,0.1,1.8,0.3
	c0.2,0,0.5,0.1,0.7,0.2l13.6,5.8C71.2,47.9,72,49.9,71.3,51.7z M59.1,61.2v-2.6H40.9v2.6l5.6,5.9h6.9L59.1,61.2z"/>
</svg>
