<?xml version="1.0" encoding="utf-8"?>
<!-- Generator: Adobe Illustrator 22.1.0, SVG Export Plug-In . SVG Version: 6.00 Build 0)  -->
<svg version="1.1" id="Layer_1" xmlns="http://www.w3.org/2000/svg" xmlns:xlink="http://www.w3.org/1999/xlink" x="0px" y="0px"
	 viewBox="0 0 64 64" style="enable-background:new 0 0 64 64;" xml:space="preserve">
<style type="text/css">
	.st0{fill:#FFFFFF;}
</style>
<g>
	<g>
		<path class="st0" d="M47.3,62.4c-7.5,0-13.7-6.1-13.7-13.7S39.8,35,47.3,35S61,41.2,61,48.7S54.8,62.4,47.3,62.4z M47.3,38.7
			c-5.5,0-10.1,4.5-10.1,10.1s4.5,10.1,10.1,10.1s10.1-4.5,10.1-10.1S52.8,38.7,47.3,38.7z"/>
		<path class="st0" d="M51.8,50.1c-0.2-0.4-0.4-0.8-0.7-1.1s-0.7-0.6-1.1-0.9c-0.4-0.3-0.9-0.5-1.4-0.7c-0.1-0.1-0.3-0.1-0.4-0.2
			c-0.2-0.1-0.5-0.2-0.6-0.3c-0.3-0.1-0.5-0.3-0.7-0.4l0,0c-0.2-0.1-0.3-0.3-0.4-0.4c-0.1-0.1-0.1-0.3-0.1-0.5s0-0.3,0.1-0.4
			c0.1-0.1,0.2-0.2,0.4-0.3c0,0,0,0,0.1,0c0.2-0.1,0.3-0.2,0.6-0.2c0.2-0.1,0.5-0.1,0.8-0.1h0.1c0.2,0,0.5,0,0.8,0.1
			c0.3,0,0.5,0.1,0.8,0.2c0.3,0.1,0.5,0.2,0.8,0.3c0.2,0.1,0.5,0.1,0.7-0.1s0.3-0.4,0.3-0.6v-1.2c0-0.6-0.4-1-0.9-1.2
			C50.8,42,50.5,42,50.3,42c-0.5-0.1-1-0.1-1.6-0.1V41h-1.9v1c-0.2,0-0.3,0.1-0.4,0.1c-0.6,0.2-1.2,0.4-1.7,0.7s-0.9,0.8-1.2,1.3
			s-0.4,1.2-0.4,1.9c0,0.9,0.3,1.7,0.8,2.4c0.5,0.6,1.3,1.2,2.4,1.6c0.2,0.1,0.5,0.2,0.7,0.3c0.1,0.1,0.3,0.1,0.4,0.2
			c0.3,0.2,0.6,0.3,0.9,0.5l0.1,0.1c0.2,0.1,0.3,0.3,0.4,0.4c0.1,0.2,0.2,0.3,0.2,0.6c0,0.2,0,0.3-0.1,0.4c-0.1,0.1-0.2,0.2-0.3,0.3
			c0,0-0.1,0-0.1,0.1C48.4,53,48.2,53,48,53.1c-0.2,0.1-0.5,0.1-0.8,0.1h-0.1c-0.6,0-1.2-0.1-1.8-0.3c-0.3-0.1-0.6-0.3-0.9-0.4
			c-0.2-0.1-0.5-0.1-0.7,0s-0.4,0.4-0.4,0.6v1.3c0,0.5,0.3,1,0.8,1.1c0.3,0.1,0.7,0.2,1.1,0.3c0.6,0.1,1.2,0.2,1.9,0.2v0.9H49v-1
			c0.1,0,0.3,0,0.4-0.1c0.7-0.1,1.2-0.4,1.7-0.7s0.9-0.8,1.2-1.3s0.4-1.2,0.4-2C52,51,51.9,50.5,51.8,50.1z"/>
	</g>
	<g>
		<path class="st0" d="M34.9,58.5H10.5c-1.8,0-3.3-1.5-3.3-3.3V8.8c0-1.8,1.5-3.3,3.3-3.3h32h3.6c1.8,0,3.2,1.4,3.3,3.2l0.1,3.6V33
			c1.5,0.2,2.9,0.6,4.3,1.2v-24V7c0-3.2-2.6-5.7-5.7-5.7h-3.3h-36C5.6,1.3,3,3.8,3,6.9v50.2c0,3.1,2.5,5.7,5.7,5.7H40
			C38,61.7,36.3,60.2,34.9,58.5z"/>
	</g>
	<g>
		<path class="st0" d="M42.6,19.6H14.2c-0.9,0-1.6-0.7-1.6-1.6s0.7-1.6,1.6-1.6h28.4c0.9,0,1.6,0.7,1.6,1.6S43.5,19.6,42.6,19.6z"/>
		<path class="st0" d="M42.6,29H14.2c-0.9,0-1.6-0.7-1.6-1.6s0.7-1.6,1.6-1.6h28.4c0.9,0,1.6,0.7,1.6,1.6C44.2,28.2,43.5,29,42.6,29
			z"/>
		<g>
			<path class="st0" d="M32.1,44.4H14.2c-0.9,0-1.6,0.7-1.6,1.6s0.7,1.6,1.6,1.6h17.4C31.6,46.6,31.8,45.5,32.1,44.4z"/>
		</g>
		<path class="st0" d="M39.4,35H14.2c-0.9,0-1.6,0.7-1.6,1.6s0.7,1.6,1.6,1.6h21.2C36.5,37,37.9,35.9,39.4,35z"/>
	</g>
</g>
</svg>
