<?xml version="1.0" encoding="utf-8"?>
<!-- Generator: Adobe Illustrator 22.1.0, SVG Export Plug-In . SVG Version: 6.00 Build 0)  -->
<svg version="1.1" id="Layer_1" xmlns="http://www.w3.org/2000/svg" xmlns:xlink="http://www.w3.org/1999/xlink" x="0px" y="0px"
	 viewBox="0 0 64 64" style="enable-background:new 0 0 64 64;" xml:space="preserve">
<style type="text/css">
	.st0{fill:#FFFFFF;}
</style>
<g>
	<g>
		<path class="st0" d="M46.8,58.8c-6.6,0-12-5.3-12-12s5.4-12,12-12s12,5.4,12,12S53.4,58.8,46.8,58.8z M46.8,38
			C42,38,38,42,38,46.9s3.9,8.8,8.8,8.8s8.8-3.9,8.8-8.8S51.6,38,46.8,38z"/>
		<path class="st0" d="M50.7,48c-0.2-0.4-0.4-0.7-0.6-1c-0.3-0.3-0.6-0.5-1-0.8c-0.4-0.3-0.8-0.4-1.2-0.6c-0.1-0.1-0.3-0.1-0.4-0.2
			c-0.2-0.1-0.4-0.2-0.5-0.3c-0.3-0.1-0.4-0.3-0.6-0.4l0,0c-0.2-0.1-0.3-0.3-0.4-0.4C46,44.4,46,44.3,46,44.1c0-0.2,0-0.3,0.1-0.4
			c0.1-0.1,0.2-0.2,0.4-0.3c0,0,0,0,0.1,0c0.2-0.1,0.3-0.2,0.5-0.2c0.2-0.1,0.4-0.1,0.7-0.1h0.1c0.2,0,0.4,0,0.7,0.1
			c0.3,0,0.4,0.1,0.7,0.2c0.3,0.1,0.4,0.2,0.7,0.3c0.2,0.1,0.4,0.1,0.6-0.1c0.2-0.2,0.3-0.4,0.3-0.5v-1.1c0-0.5-0.4-0.9-0.8-1.1
			c-0.2-0.1-0.4-0.1-0.6-0.1c-0.4-0.1-0.9-0.1-1.4-0.1v-0.8h-1.7v0.9c-0.2,0-0.3,0.1-0.4,0.1c-0.5,0.2-1.1,0.4-1.5,0.6
			c-0.4,0.3-0.8,0.7-1.1,1.1c-0.3,0.4-0.4,1.1-0.4,1.7c0,0.8,0.3,1.5,0.7,2.1c0.4,0.5,1.1,1.1,2.1,1.4c0.2,0.1,0.4,0.2,0.6,0.3
			c0.1,0.1,0.3,0.1,0.4,0.2c0.3,0.2,0.5,0.3,0.8,0.4l0.1,0.1c0.2,0.1,0.3,0.3,0.4,0.4c0.1,0.2,0.2,0.3,0.2,0.5c0,0.2,0,0.3-0.1,0.4
			c-0.1,0.1-0.2,0.2-0.3,0.3c0,0-0.1,0-0.1,0.1c-0.1,0.1-0.3,0.1-0.4,0.2c-0.2,0.1-0.4,0.1-0.7,0.1h-0.1c-0.5,0-1.1-0.1-1.6-0.3
			c-0.3-0.1-0.5-0.3-0.8-0.4c-0.2-0.1-0.4-0.1-0.6,0s-0.4,0.4-0.4,0.5v1.1c0,0.4,0.3,0.9,0.7,1c0.3,0.1,0.6,0.2,1,0.3
			c0.5,0.1,1.1,0.2,1.7,0.2V54h1.7v-0.9c0.1,0,0.3,0,0.4-0.1c0.6-0.1,1.1-0.4,1.5-0.6s0.8-0.7,1.1-1.1c0.3-0.4,0.4-1.1,0.4-1.8
			C50.9,48.8,50.8,48.4,50.7,48z"/>
	</g>
	<g>
		<path class="st0" d="M35.9,55.4H14.6c-1.6,0-2.9-1.3-2.9-2.9V11.9c0-1.6,1.3-2.9,2.9-2.9h28h3.2c1.6,0,2.8,1.2,2.9,2.8l0.1,3.2V33
			c1.3,0.2,2.5,0.5,3.8,1.1v-21v-2.8c0-2.8-2.3-5-5-5h-2.9H13.1C10.3,5.3,8,7.5,8,10.2v44c0,2.7,2.2,5,5,5h27.4
			C38.7,58.2,37.2,56.9,35.9,55.4z"/>
	</g>
	<g>
		<path class="st0" d="M42.7,21.3H17.8c-0.8,0-1.4-0.6-1.4-1.4c0-0.8,0.6-1.4,1.4-1.4h24.9c0.8,0,1.4,0.6,1.4,1.4
			C44.1,20.7,43.5,21.3,42.7,21.3z"/>
		<path class="st0" d="M42.7,29.5H17.8c-0.8,0-1.4-0.6-1.4-1.4c0-0.8,0.6-1.4,1.4-1.4h24.9c0.8,0,1.4,0.6,1.4,1.4
			C44.1,28.8,43.5,29.5,42.7,29.5z"/>
		<g>
			<path class="st0" d="M33.5,43H17.8c-0.8,0-1.4,0.6-1.4,1.4c0,0.8,0.6,1.4,1.4,1.4h15.2C33.1,45,33.2,44,33.5,43z"/>
		</g>
		<path class="st0" d="M39.9,34.8H17.8c-0.8,0-1.4,0.6-1.4,1.4c0,0.8,0.6,1.4,1.4,1.4h18.6C37.3,36.6,38.6,35.6,39.9,34.8z"/>
	</g>
</g>
</svg>
