<?xml version="1.0" encoding="utf-8"?>
<!-- Generator: Adobe Illustrator 22.1.0, SVG Export Plug-In . SVG Version: 6.00 Build 0)  -->
<svg version="1.1"
	 id="Layer_1" xmlns:cc="http://creativecommons.org/ns#" xmlns:dc="http://purl.org/dc/elements/1.1/" xmlns:inkscape="http://www.inkscape.org/namespaces/inkscape" xmlns:rdf="http://www.w3.org/1999/02/22-rdf-syntax-ns#" xmlns:sodipodi="http://sodipodi.sourceforge.net/DTD/sodipodi-0.dtd" xmlns:svg="http://www.w3.org/2000/svg"
	 xmlns="http://www.w3.org/2000/svg" xmlns:xlink="http://www.w3.org/1999/xlink" x="0px" y="0px" viewBox="0 0 100 100"
	 style="enable-background:new 0 0 100 100;" xml:space="preserve">
<style type="text/css">
	.st0{fill:#FFFFFF;}
</style>
<g transform="translate(0,-952.36218)">
	<path class="st0" d="M7.7,973.4c-1.5,0.2-2.7,1.5-2.7,3v9v43c0,1.7,1.3,3,3,3h84c1.7,0,3-1.3,3-3v-42.8c0-0.1,0-0.1,0-0.2v-9
		c0-0.1,0-0.2,0-0.3c-0.1-1.2-1-2.3-2.2-2.6c-0.2-0.1-0.4-0.1-0.6-0.1c-0.1,0-0.1,0-0.2,0H8C7.9,973.4,7.8,973.4,7.7,973.4
		L7.7,973.4z M11,979.4h78v4.2l-39,21.4l-39-21.4C11,983.6,11,979.4,11,979.4z M11,990.4l37.6,20.6c0.9,0.5,2,0.5,2.9,0L89,990.4
		v34.9H11L11,990.4L11,990.4z"/>
</g>
</svg>
