<?xml version="1.0" encoding="utf-8"?>
<!-- Generator: Adobe Illustrator 22.1.0, SVG Export Plug-In . SVG Version: 6.00 Build 0)  -->
<svg version="1.1" id="Layer_1" xmlns="http://www.w3.org/2000/svg" xmlns:xlink="http://www.w3.org/1999/xlink" x="0px" y="0px"
	 viewBox="0 0 100 100" style="enable-background:new 0 0 100 100;" xml:space="preserve">
<style type="text/css">
	.st0{fill:#1A9D9E;}
</style>
<path class="st0" d="M5,21.9c0-4.7,3.8-8.4,8.4-8.4h73.1c4.7,0,8.4,3.8,8.4,8.4s-3.8,8.4-8.4,8.4H13.4C8.8,30.3,5,26.5,5,21.9z
	 M86.6,41.6H13.4C8.8,41.6,5,45.3,5,50s3.8,8.4,8.4,8.4h73.1c4.7,0,8.4-3.8,8.4-8.4S91.2,41.6,86.6,41.6z M86.6,69.7H13.4
	c-4.7,0-8.4,3.8-8.4,8.4s3.8,8.4,8.4,8.4h73.1c4.7,0,8.4-3.8,8.4-8.4S91.2,69.7,86.6,69.7z"/>
</svg>
