<?xml version="1.0" encoding="utf-8"?>
<!-- Generator: Adobe Illustrator 22.1.0, SVG Export Plug-In . SVG Version: 6.00 Build 0)  -->
<svg version="1.1" id="Layer_1" xmlns="http://www.w3.org/2000/svg" xmlns:xlink="http://www.w3.org/1999/xlink" x="0px" y="0px"
	 viewBox="0 0 64 64" style="enable-background:new 0 0 64 64;" xml:space="preserve">
<style type="text/css">
	.st0{fill:#FFFFFF;}
</style>
<path class="st0" d="M61,43h-3V32c0-0.6-0.4-1-1-1H33V16h4.1c0.6,3.3,3.6,5.5,6.9,4.9c3.3-0.6,5.5-3.6,4.9-6.9S45.3,8.5,42,9.1
	c-2.5,0.4-4.5,2.4-4.9,4.9H27v-3c0-0.6-0.4-1-1-1h-8c-0.6,0-1,0.4-1,1v8c0,0.6,0.4,1,1,1h8c0.6,0,1-0.4,1-1v-3h4v15H8
	c-0.6,0-1,0.4-1,1v11.1c-3.3,0.6-5.5,3.6-4.9,6.9s3.6,5.5,6.9,4.9s5.5-3.6,4.9-6.9c-0.4-2.5-2.4-4.5-4.9-4.9V33h14v10h-3
	c-0.6,0-1,0.4-1,1v8c0,0.6,0.4,1,1,1h8c0.6,0,1-0.4,1-1v-8c0-0.6-0.4-1-1-1h-3V33h14v10h-3c-0.6,0-1,0.4-1,1v8c0,0.6,0.4,1,1,1h8
	c0.6,0,1-0.4,1-1v-8c0-0.6-0.4-1-1-1h-3V33h15v10h-3c-0.6,0-1,0.4-1,1v8c0,0.6,0.4,1,1,1h8c0.6,0,1-0.4,1-1v-8
	C62,43.4,61.6,43,61,43z M43,11c2.2,0,4,1.8,4,4s-1.8,4-4,4s-4-1.8-4-4S40.8,11,43,11z M20.6,12L19,13.6V12H20.6z M19,16.4l4.4-4.4
	H25v1.6L20.6,18H19V16.4z M23.4,18l1.6-1.6V18H23.4z M7.5,45L4,48.5C4.3,46.7,5.7,45.3,7.5,45z M8.5,53l3.5-3.5
	C11.7,51.3,10.3,52.7,8.5,53z M11.8,47.8l-0.5-0.5l-5,5l0.5,0.5c-1.2-0.4-2.2-1.4-2.6-2.6l0.5,0.5l5-5l-0.5-0.5
	C10.4,45.6,11.4,46.6,11.8,47.8z M27,51h-6v-6h6V51z M43,51h-6v-6h6V51z M55.6,45L54,46.6V45H55.6z M54,49.4l4.4-4.4H60v1.6L55.6,51
	H54V49.4z M58.4,51l1.6-1.6V51H58.4z"/>
</svg>
