<?xml version="1.0" encoding="utf-8"?>
<!-- Generator: Adobe Illustrator 22.1.0, SVG Export Plug-In . SVG Version: 6.00 Build 0)  -->
<svg version="1.1" id="Layer_1" xmlns="http://www.w3.org/2000/svg" xmlns:xlink="http://www.w3.org/1999/xlink" x="0px" y="0px"
	 viewBox="0 0 333 333" style="enable-background:new 0 0 333 333;" xml:space="preserve">
<style type="text/css">
	.st0{fill:#1A9D9E;}
</style>
<g>
	<path class="st0" d="M263,294l35-35c0,0,6-11-2-21c-9-9-53-32-53-32s-10-6-22,6c-12,13-12,13-12,13s-6,5-14,1c-31-16-71-56-88-88
		c-4-7,2-14,2-14s-1,1,12-11c13-13,6-22,6-22s-22-45-32-53c-9-9-21-3-21-3L39,71C-1,150,183,334,263,294z"/>
</g>
</svg>
